<?xml version="1.0"?>
<svg version="1.1" xmlns="http://www.w3.org/2000/svg" width="270" height="71" style=""><path fill="#268ad1" d="M22.74,32.47l-4.59,0l-1.14,0l-0.75,0l0,21.03l0.75,0l1.14,0l4.59,0q4.38,0,7.5-3.06q3.21-3.15,3.21-7.65q0-4.26-3.21-7.32q-3.15-3-7.5-3z M22.74,51.61l-4.59,0l0-17.19l4.59,0q3.75,0,6.3,2.46q2.52,2.46,2.52,5.91q0,3.75-2.52,6.27q-2.55,2.55-6.3,2.55z M45.5652,32.38q-3.36,0-5.64,2.43q-2.25,2.4-2.25,5.85l0,12.84l1.89,0l0-9.42l12.06,0l0,9.42l1.89,0l0-12.84q0-3.45-2.25-5.85q-2.34-2.43-5.7-2.43z M51.6252,42.22l-12.06,0l0-1.56q0-2.58,1.74-4.47q1.77-1.92,4.26-1.92t4.32,1.92q1.74,1.89,1.74,4.47l0,1.56z M67.2204,42.97l2.25,0q2.28,0,3.78-1.5t1.5-3.78q0-2.01-1.5-3.6q-1.59-1.65-3.78-1.65l-9.39,0l-1.86,0l0,21.06l1.86,0l0-10.53l4.89,0l6.39,10.53l2.25,0z M60.0804,41.11l0-6.78l9.39,0q1.38,0,2.43,0.99q0.99,0.99,0.99,2.37q0,1.44-0.99,2.43q-1.05,0.99-2.43,0.99l-9.39,0z M92.6556,53.5l3.03,0l-13.41-10.71l13.41-10.32l-3.03,0l-11.52,9.18l0-9.18l-1.89,0l0,21.03l1.89,0l0-9.18z M99.6708,57.1l16.08,0l0-1.89l-16.08,0l0,1.89z M134.016,42.79q1.17-0.57,1.92-1.89q0.75-1.26,0.75-2.7q0-2.58-1.74-4.17q-1.74-1.56-4.38-1.56l-8.43,0l-0.36,0l-1.53,0l0,21.03l1.53,0l0.36,0l8.43,0q2.64,0,4.38-1.56q1.74-1.59,1.74-4.17q0-1.41-0.735-2.745t-1.935-2.235z M122.136,34l8.43,0q1.8,0,2.97,1.23q1.26,1.32,1.26,2.97q0,1.35-0.99,2.49q-0.93,1.02-2.46,1.35l-0.78,0l-8.43,0l0-8.04z M130.566,51.97l-8.43,0l0-8.04l8.43,0l0.78,0q1.53,0.33,2.46,1.35q0.99,1.14,0.99,2.49q0,1.62-1.26,2.94q-1.2,1.26-2.97,1.26z M149.3112,32.5q-3.39,0-5.82,2.43q-2.46,2.46-2.46,5.85l0,4.53q0,3.33,2.46,5.79t5.82,2.46q3.39,0,5.85-2.46q2.43-2.43,2.43-5.79l0-4.53q0-3.42-2.43-5.85t-5.85-2.43z M155.7312,40.78l0,4.53q0,2.73-1.92,4.59q-1.89,1.8-4.5,1.8t-4.47-1.8q-1.92-1.86-1.92-4.59l0-4.53q0-2.52,1.92-4.5q1.92-1.92,4.47-1.92q2.52,0,4.5,1.92q1.92,1.98,1.92,4.5z M171.6264,43.03l7.14-10.56l-2.28,0l-6,9l-6.36-9l-1.92,0l7.14,10.56l-7.5,10.5l2.28,0l6.36-9l6,9l1.92,0z"/><path fill="#3dd49f" d="M188.48786953125,44.49560546875q-0.05615234375-0.75244140625,0.08984375-1.38134765625t0.583984375-1.02197265625t1.40380859375-0.39306640625q0.224609375,0,0.55029296875,0.05615234375t0.64013671875,0.14599609375t0.52783203125,0.26953125t0.21337890625,0.494140625l0,2.5380859375q0.8759765625-1.0107421875,1.9091796875-1.44873046875t2.3583984375-0.43798828125q1.0107421875,0,1.9990234375,0.46044921875t1.8642578125,1.22412109375t1.51611328125,1.6845703125t0.93212890625,1.841796875q0.1796875-0.8310546875,0.404296875-2.03271484375t0.66259765625-2.30224609375t1.15673828125-1.88671875t1.9091796875-0.7861328125q1.2802734375,0,2.15625,0.9208984375t1.42626953125,2.39208984375t0.8310546875,3.29052734375t0.41552734375,3.59375t0.134765625,3.31298828125l0,2.41455078125q0,0.26953125-0.2021484375,0.43798828125t-0.50537109375,0.25830078125t-0.62890625,0.1123046875t-0.50537109375,0.0224609375q-0.6962890625,0-1.26904296875-0.21337890625t-0.57275390625-1.08935546875l0-2.021484375t-0.044921875-2.61669921875t-0.1572265625-2.8076171875t-0.2919921875-2.54931640625t-0.46044921875-1.841796875t-0.68505859375-0.71875q-0.5615234375,0-0.80859375,0.62890625t-0.41552734375,1.5947265625t-0.25830078125,2.0439453125t-0.2470703125,2.0439453125t-0.50537109375,1.58349609375t-0.95458984375,0.61767578125q-0.6513671875,0-1.1455078125-0.61767578125t-0.97705078125-1.53857421875t-0.9658203125-1.9765625t-1.06689453125-1.9765625q-0.583984375-0.943359375-1.2578125-1.52734375q-0.6064453125-0.5615234375-1.3701171875-0.5390625l-0.1123046875,0q-1.0107421875,0.044921875-1.58349609375,0.72998046875t-0.8759765625,1.67333984375t-0.37060546875,2.12255859375t-0.0673828125,1.98779296875q0,0.80859375,0.134765625,1.88671875q0.08984375,0.71875,0.08984375,1.3701171875q0,0.3369140625-0.0224609375,0.6513671875q-0.0673828125,0.943359375-0.50537109375,1.58349609375t-1.62841796875,0.64013671875q-0.44921875,0-1.123046875-0.08984375t-0.8984375-0.6064453125q-0.5166015625-0.9208984375-0.7861328125-2.32470703125t-0.404296875-2.8974609375t-0.1572265625-2.96484375t-0.0224609375-2.52685546875q0-0.7412109375-0.05615234375-1.49365234375z M216.83739101562,50.234375l0-0.6513671875q0-0.80859375,0.044921875-1.52734375q0.044921875-1.0107421875,0.044921875-1.662109375q0-0.359375,0.044921875-0.81982421875t0.224609375-0.72998046875q0.224609375-0.224609375,0.52783203125-0.46044921875t0.66259765625-0.23583984375q1.1455078125,0,1.796875,0.25830078125t0.6962890625,1.06689453125l0.08984375,0.6962890625q0.404296875-0.9658203125,1.078125-2.39208984375t1.56103515625-2.7177734375t1.9990234375-2.201171875t2.34716796875-0.90966796875q1.1455078125,0,1.88671875,1.078125t1.17919921875,2.75146484375t0.61767578125,3.728515625t0.2470703125,4.03173828125t0.08984375,3.60498046875t0.1572265625,2.45947265625q0.08984375,0.6962890625,0.30322265625,1.47119140625t0.21337890625,1.42626953125q0,0.1796875-0.25830078125,0.34814453125t-0.55029296875,0.28076171875t-0.59521484375,0.1796875t-0.43798828125,0.0673828125q-0.8759765625,0-1.24658203125-1.31396484375t-0.46044921875-3.29052734375t-0.08984375-4.27880859375t-0.1572265625-4.27880859375t-0.64013671875-3.29052734375t-1.53857421875-1.35888671875q-0.9658203125,0-1.9990234375,1.24658203125t-1.7744140625,3.31298828125q-0.71875,2.06640625-0.98828125,4.6943359375q-0.08984375,0.8310546875-0.08984375,1.662109375q0,1.8193359375,0.3818359375,3.638671875q0.044921875,0.314453125-0.25830078125,0.4716796875t-0.75244140625,0.2470703125t-0.90966796875,0.1123046875t-0.70751953125,0.0224609375q-0.8759765625,0-1.40380859375-0.61767578125t-0.81982421875-1.58349609375t-0.39306640625-2.16748046875t-0.12353515625-2.36962890625z M237.24697109375,41.9912109375q0-1.0556640625,0.41552734375-1.56103515625t1.51611328125-0.50537109375q0.6513671875,0,1.22412109375,0.26953125t0.57275390625,1.1455078125q0.08984375,1.2802734375,0.08984375,2.68408203125t0.2470703125,2.66162109375q0.5615234375-0.9208984375,1.26904296875-1.841796875t1.56103515625-1.6396484375t1.8642578125-1.15673828125t2.201171875-0.43798828125q1.6171875,0,2.740234375,0.673828125t1.85302734375,1.751953125t1.0556640625,2.43701171875t0.32568359375,2.72900390625q0,2.111328125-0.64013671875,3.44775390625t-1.69580078125,2.10009765625t-2.39208984375,1.033203125t-2.68408203125,0.26953125q-1.1904296875,0-2.2236328125-0.46044921875t-1.4375-1.74072265625q0-0.359375,0.52783203125-0.44921875t0.75244140625-0.08984375q0.7412109375,0,1.1005859375,0.404296875q0.26953125,0.314453125,0.59521484375,0.64013671875t0.68505859375,0.32568359375q0.6962890625,0,1.4599609375-0.39306640625t1.40380859375-1.033203125t1.078125-1.51611328125t0.43798828125-1.796875q0-0.7861328125-0.134765625-1.9541015625t-0.46044921875-2.24609375t-0.8984375-1.8642578125t-1.44873046875-0.7861328125q-1.3251953125,0-2.39208984375,1.212890625t-1.7744140625,2.919921875t-1.1005859375,3.548828125t-0.39306640625,3.0771484375t0.1572265625,3.1220703125t0.32568359375,3.91943359375t0.32568359375,3.91943359375t0.1572265625,3.1220703125q0,0.314453125-0.25830078125,0.50537109375t-0.61767578125,0.30322265625t-0.72998046875,0.134765625t-0.55029296875,0.0224609375q-0.6064453125,0-1.26904296875-0.134765625t-0.90966796875-0.8310546875q-0.314453125-1.1005859375-0.583984375-3.13330078125t-0.48291015625-4.4921875t-0.37060546875-5.166015625t-0.26953125-5.22216796875t-0.16845703125-4.6044921875t-0.05615234375-3.32421875z"/></svg>
